<svg id="Isolation_Mode" data-name="Isolation Mode" xmlns="http://www.w3.org/2000/svg" viewBox="0 0 712.02 86.31"><defs><style>.cls-1{fill:#fff;}</style></defs><title>logo-white</title><path class="cls-1" d="M282.91,71.22c0.73-1,1.22-1.6,1.22-1.6-1.2-.68-2.28-1.32-3.29-2a24.41,24.41,0,0,1-1.3,2.08A22.33,22.33,0,0,1,282.91,71.22Zm53-22.47-1.37,1.06c-2.12,1.69-6.09,4.74-10.39,8l-0.14.11h0c-8.13,6.19-17.34,13.12-17.34,13.12,2.16,1.33,8.5,5.51,11,7.14,0.5-.48,1.5-1.45,2.08-2,0.78-.82,1.39-1.47,2.29-1,2.52,1.09,2.72,2.51,2.72,2.51L325,79l3-.92,0.22-.08a2.6,2.6,0,0,1,.54-0.1,3,3,0,0,1,.77,0,3.26,3.26,0,0,1,.92.3,3.54,3.54,0,0,1,.81.54,2,2,0,0,1,.46.59,0.9,0.9,0,0,1,.09.55,0.7,0.7,0,0,1-.31.43l-4.71,3.25-0.26.15,0,0.13c0.09,0.31.35,0.53-.17,0.77a1.47,1.47,0,0,1-1.14-.06,2.66,2.66,0,0,1-.84.4L321.08,87a0.88,0.88,0,0,1-.4.12,4.42,4.42,0,0,1-.61,0c-0.21,0-.46-0.07-0.7-0.12a5.34,5.34,0,0,1-.73-0.23,2.39,2.39,0,0,1-.53-0.27,1,1,0,0,1-.23-0.25,0.39,0.39,0,0,1-.05-0.17l0.65-2.83-1.22-.36h0l-20.4-6s-14.84,6-15.66,6.26a2.77,2.77,0,0,1-2.28.1c-1-.39-1.7-1.08-0.95-2.87a41.18,41.18,0,0,1,2.15-4.62,23,23,0,0,1-2.86-3c-1.48,1.76-2.74,2.91-3,2.69s0.79-2.29,2.54-4.64a0.92,0.92,0,0,1-.37-0.91,1,1,0,0,1,1,0,28.07,28.07,0,0,1,2.49-2.82c-8.28-5.34-9.58-8.83-8.84-9.83s4.83,0.16,4.83.16a1,1,0,0,1,.78-0.46c2.13-.23,6.3,1.57,9.7,3.27a34.68,34.68,0,0,1,3-4.33,1.22,1.22,0,0,1-.43-1.22,1.28,1.28,0,0,1,1.34.11c2.5-3,4.8-5,5.23-4.68s-0.71,2.18-2.46,4.55a52.5,52.5,0,0,1,7.8,4.1l22.33-10.59c0.87-.4,3.3-1.69,5.94-2.89l3.77-1.84A42.91,42.91,0,1,0,335.91,48.75Zm-48.3,12.1c2.32,1.21,4.05,2.24,4.05,2.24l1.71-.78A27.4,27.4,0,0,1,290,58.48,33,33,0,0,1,287.61,60.85Z" transform="translate(-253.69 -23.94)"/><path class="cls-1" d="M388.43,48.81l-0.85,6H375.86v8.44h9.39v6h-9.39V85.71h-7.43V48.81h20Z" transform="translate(-253.69 -23.94)"/><path class="cls-1" d="M405.58,48.81V73.07a10,10,0,0,0,.64,4.4c0.85,1.64,2.6,2.54,5,2.54,3.24,0,5.31-1.58,5.63-4.29a24.22,24.22,0,0,0,.1-3.3V48.81h7.54V73.65c0,3.5-.05,4.19-0.59,5.79-1,2.92-4.56,7-12.53,7-5.63,0-9.77-1.7-11.84-4.94-1.22-1.91-1.59-3.4-1.59-7V48.81h7.59Z" transform="translate(-253.69 -23.94)"/><path class="cls-1" d="M444.56,48.81V79.54h13.22l-1.33,6.16H437V48.81h7.59Z" transform="translate(-253.69 -23.94)"/><path class="cls-1" d="M475,48.81V79.54H488.2l-1.33,6.16H467.39V48.81H475Z" transform="translate(-253.69 -23.94)"/><path class="cls-1" d="M536.06,56.72c-3.34-2-5.84-2.81-8.6-2.81-3,0-5.14,1.75-5.14,4.25,0,1.91,1,2.86,4.09,3.71l4.45,1.22c6.05,1.64,9.35,5.51,9.35,11,0,7.48-6.05,12.42-15.24,12.42a26.34,26.34,0,0,1-12.58-3.35l2.76-5.78c3.45,1.8,6.42,3,10.14,3,4.25,0,6.48-1.75,6.48-5,0-2.39-1.54-3.87-4.83-4.77l-4.09-1.12c-3.66-1-5.94-2.44-7.27-4.67A10.59,10.59,0,0,1,514,59.11c0-6.74,5.42-11.41,13.22-11.41a21.69,21.69,0,0,1,12.32,3.71Z" transform="translate(-253.69 -23.94)"/><path class="cls-1" d="M564.68,48.71l11.62,37h-8l-2.6-8.76H554.91l-2.6,8.76h-7.75l12.1-37h8Zm-0.75,22.08s-1.21-3.88-2-7.43c-0.38-1.7-1.49-6.53-1.49-6.53s-1.06,4.35-1.75,7.11-1.17,4.4-2,6.85h7.21Z" transform="translate(-253.69 -23.94)"/><path class="cls-1" d="M591.82,48.81v36.9h-7.75V48.81h7.75Z" transform="translate(-253.69 -23.94)"/><path class="cls-1" d="M612.06,48.81V79.54h13.22l-1.33,6.16H604.46V48.81h7.6Z" transform="translate(-253.69 -23.94)"/><path class="cls-1" d="M657.05,48.81V73.07a10,10,0,0,0,.64,4.4c0.85,1.64,2.6,2.54,5,2.54,3.23,0,5.3-1.58,5.62-4.29a23.32,23.32,0,0,0,.11-3.3V48.81H676V73.65c0,3.5-.06,4.19-0.59,5.79-0.95,2.92-4.56,7-12.52,7-5.63,0-9.77-1.7-11.84-4.94-1.23-1.91-1.6-3.4-1.6-7V48.81h7.59Z" transform="translate(-253.69 -23.94)"/><path class="cls-1" d="M696.66,48.81l7.06,14.76a70.64,70.64,0,0,1,4,10.46c-0.26-2.86-.53-7.59-0.58-10.13L707,48.81h7.06v36.9h-7.75L700,71.58c-2.07-4.62-4.3-9.82-5-12.1,0.27,3,.32,7.38.37,10.46l0.21,15.77h-7.16V48.81h8.22Z" transform="translate(-253.69 -23.94)"/><path class="cls-1" d="M734.26,48.81v36.9h-7.75V48.81h7.75Z" transform="translate(-253.69 -23.94)"/><path class="cls-1" d="M751.46,48.81L757.56,68c0.48,1.65,1.11,3.71,1.7,6.43a70.49,70.49,0,0,1,2.13-7.38l6.26-18.26h7.8L762.6,86h-6.74L743.33,48.81h8.12Z" transform="translate(-253.69 -23.94)"/><path class="cls-1" d="M805.53,48.81l-1,6.05H791.95v8.55h10.57v6H792.06v9.87H806v6.37H784.52V48.81h21Z" transform="translate(-253.69 -23.94)"/><path class="cls-1" d="M830.43,48.81c6.52,0,10.83,4.35,10.83,10.83,0,5.52-3.66,10.08-8.23,10.19a7.29,7.29,0,0,1,1.54,1.54c2.13,2.65,8.87,14.34,8.87,14.34h-8.75c-1.44-2.45-2-3.45-3.45-6.05-3.66-6.64-4.77-8.43-6.11-9a3.78,3.78,0,0,0-1.17-.32v15.4h-7.28V48.81h13.75Zm-6.48,15.92h2.5c3.19,0,4.56-.32,5.57-1.22a5,5,0,0,0,1.44-3.71c0-2.28-.9-3.88-2.65-4.51a13.36,13.36,0,0,0-4.19-.53h-2.66v10Z" transform="translate(-253.69 -23.94)"/><path class="cls-1" d="M873.21,56.72c-3.35-2-5.84-2.81-8.6-2.81-3,0-5.16,1.75-5.16,4.25,0,1.91,1,2.86,4.09,3.71L868,63.09c6.05,1.64,9.34,5.51,9.34,11,0,7.48-6,12.42-15.23,12.42a26.36,26.36,0,0,1-12.58-3.35l2.76-5.78c3.45,1.8,6.42,3,10.14,3,4.24,0,6.47-1.75,6.47-5,0-2.39-1.54-3.87-4.83-4.77L860,69.41c-3.66-1-5.94-2.44-7.26-4.67a10.59,10.59,0,0,1-1.55-5.62c0-6.74,5.42-11.41,13.22-11.41a21.73,21.73,0,0,1,12.32,3.71Z" transform="translate(-253.69 -23.94)"/><path class="cls-1" d="M894.44,48.81v36.9h-7.75V48.81h7.75Z" transform="translate(-253.69 -23.94)"/><path class="cls-1" d="M930,48.81L928.82,55H920V85.71h-7.54V55h-9V48.81H930Z" transform="translate(-253.69 -23.94)"/><path class="cls-1" d="M943.62,48.81l4.73,10.08a32.57,32.57,0,0,1,1.86,4.73c0.43-1.06,1.17-2.87,2-4.62L957,48.81h8.75L953.92,70.52V85.71h-7.75V70.52L934.7,48.81h8.92Z" transform="translate(-253.69 -23.94)"/></svg>